{"accessors":[{"bufferView":0,"componentType":5123,"count":2976,"max":[681],"min":[0],"type":"SCALAR"},{"bufferView":1,"componentType":5126,"count":682,"max":[47.375431060791016,43.53184127807617,27.639263153076172],"min":[-41.458892822265625,0.0,-27.639263153076172],"type":"VEC3"},{"bufferView":2,"componentType":5126,"count":682,"max":[0.99959796667099,1.0,0.9998498558998108],"min":[-0.9978037476539612,-1.0,-0.999891996383667],"type":"VEC3"},{"bufferView":3,"componentType":5123,"count":682,"max":[1,0,0,0],"min":[0,0,0,0],"type":"VEC4"},{"bufferView":4,"componentType":5126,"count":682,"max":[1.0,0.0,0.0,0.0],"min":[1.0,0.0,0.0,0.0],"type":"VEC4"},{"bufferView":5,"componentType":5126,"count":682,"max":[2.0,1.0],"min":[0.0,-1.0],"type":"VEC2"},{"bufferView":6,"componentType":5126,"count":2,"max":[0.6560725569725037,1.6260811719348567e-07,1.0000001192092896,0.0,1.0000001192092896,-3.5168469025848026e-08,-1.1362096330458371e-07,0.0,4.3712145014751513e-08,1.0,-2.8675872343342235e-08,0.0,0.22823713719844818,-1.1351070404052734,0.012447296641767025,1.0],"min":[1.1362200780240528e-07,7.429313164664109e-09,0.7546976804733276,0.0,0.7546976804733276,-4.371215567289255e-08,-0.6560725569725037,0.0,2.1670960137498696e-08,1.0,-1.626072219096386e-07,0.0,-25.971921920776367,-1.135109782218933,-9.813810348510742,1.0],"type":"MAT4"},{"bufferView":7,"componentType":5126,"count":151,"max":[5.0],"min":[0.0],"type":"SCALAR"},{"bufferView":8,"componentType":5126,"count":151,"max":[0.0,1.0,-0.0,1.0],"min":[0.0,-0.8660253882408142,-0.0,-0.4817538261413574],"type":"VEC4"},{"bufferView":9,"componentType":5126,"count":151,"max":[5.0],"min":[0.0],"type":"SCALAR"},{"bufferView":10,"componentType":5126,"count":151,"max":[0.7089626789093018,0.7052317261695862,0.7052361965179443,0.7089672088623047],"min":[-0.5025662183761597,-0.4999214708805084,-0.4964728355407715,-0.4990995228290558],"type":"VEC4"},{"bufferView":11,"componentType":5126,"count":151,"max":[5.0],"min":[0.0],"type":"SCALAR"},{"bufferView":12,"componentType":5126,"count":151,"max":[-2.513436811568681e-06,0.26136642694473267,6.484846721832582e-07,0.999996542930603],"min":[-2.633812528074486e-06,-0.2562698423862457,-7.125211709535506e-07,0.9652396440505981],"type":"VEC4"},{"bufferView":13,"componentType":5126,"count":151,"max":[5.0],"min":[0.0],"type":"SCALAR"},{"bufferView":14,"componentType":5126,"count":151,"max":[-2.0010984371765517e-06,-0.2672182321548462,1.920770046126563e-06,0.963636040687561],"min":[-2.7037269774154993e-06,-0.7132357954978943,6.324660262180259e-07,0.7009241580963135],"type":"VEC4"},{"bufferView":15,"componentType":5126,"count":151,"max":[5.0],"min":[0.0],"type":"SCALAR"},{"bufferView":16,"componentType":5126,"count":151,"max":[1.1561429147377567e-07,0.17621631920337677,7.569552451514028e-08,0.9999722242355347],"min":[7.968206006125911e-08,-0.4594334363937378,-5.916702860986334e-08,0.8882122039794922],"type":"VEC4"}],"animations":[{"channels":[{"sampler":0,"target":{"node":1,"path":"rotation"}}],"extensions":{"S8S_v3d_animation_data":{"auto":true,"loop":"REPEAT","offset":0.0,"repeatCount":1.0,"repeatInfinite":true}},"name":"Circle001","samplers":[{"input":7,"interpolation":"LINEAR","output":8}]},{"channels":[{"sampler":0,"target":{"node":2,"path":"rotation"}}],"extensions":{"S8S_v3d_animation_data":{"auto":true,"loop":"REPEAT","offset":0.0,"repeatCount":1.0,"repeatInfinite":true}},"name":"Bone001","samplers":[{"input":9,"interpolation":"LINEAR","output":10}]},{"channels":[{"sampler":0,"target":{"node":3,"path":"rotation"}}],"extensions":{"S8S_v3d_animation_data":{"auto":true,"loop":"REPEAT","offset":0.0,"repeatCount":1.0,"repeatInfinite":true}},"name":"Bone002","samplers":[{"input":11,"interpolation":"LINEAR","output":12}]},{"channels":[{"sampler":0,"target":{"node":5,"path":"rotation"}}],"extensions":{"S8S_v3d_animation_data":{"auto":true,"loop":"REPEAT","offset":0.0,"repeatCount":1.0,"repeatInfinite":true}},"name":"Bone004","samplers":[{"input":13,"interpolation":"LINEAR","output":14}]},{"channels":[{"sampler":0,"target":{"node":6,"path":"rotation"}}],"extensions":{"S8S_v3d_animation_data":{"auto":true,"loop":"REPEAT","offset":0.0,"repeatCount":1.0,"repeatInfinite":true}},"name":"Bone005","samplers":[{"input":15,"interpolation":"LINEAR","output":16}]}],"asset":{"generator":"Soft8Soft Verge3D for 3ds Max plug-in","version":"2.0"},"bufferViews":[{"buffer":0,"byteLength":5952,"byteOffset":0,"target":34963},{"buffer":0,"byteLength":8184,"byteOffset":5952,"target":34962},{"buffer":0,"byteLength":8184,"byteOffset":14136,"target":34962},{"buffer":0,"byteLength":5456,"byteOffset":22320,"target":34962},{"buffer":0,"byteLength":10912,"byteOffset":27776,"target":34962},{"buffer":0,"byteLength":5456,"byteOffset":38688,"target":34962},{"buffer":0,"byteLength":128,"byteOffset":44144},{"buffer":0,"byteLength":604,"byteOffset":44272},{"buffer":0,"byteLength":2416,"byteOffset":44876},{"buffer":0,"byteLength":604,"byteOffset":47292},{"buffer":0,"byteLength":2416,"byteOffset":47896},{"buffer":0,"byteLength":604,"byteOffset":50312},{"buffer":0,"byteLength":2416,"byteOffset":50916},{"buffer":0,"byteLength":604,"byteOffset":53332},{"buffer":0,"byteLength":2416,"byteOffset":53936},{"buffer":0,"byteLength":604,"byteOffset":56352},{"buffer":0,"byteLength":2416,"byteOffset":56956}],"buffers":[{"byteLength":59372,"uri":"TEAPOT.bin"}],"cameras":[{"extensions":{"S8S_v3d_camera_data":{"controls":"ORBIT","enablePan":true,"moveSpeed":1,"orbitMaxDistance":10000,"orbitMaxPolarAngle":3.141592653589793,"orbitMinDistance":0,"orbitMinPolarAngle":0,"orbitTarget":[0,0,0],"rotateSpeed":1,"viewportFitInitialAspect":1.3333333333333333,"viewportFitType":"VERTICAL"}},"name":"__DEFAULT__","perspective":{"aspectRatio":1.3333333333333333,"yfov":0.6024156981946759,"zfar":1000,"znear":0.01},"type":"perspective"}],"extensions":{"S8S_v3d_data":{"lights":[{"color":[1,1,1],"intensity":1,"name":"__DEFAULT__","profile":"max","type":"point"},{"color":[0.0,0.0,0.0],"intensity":1,"name":"__AMBIENT__","profile":"max","type":"ambient"}]}},"extensionsUsed":["S8S_v3d_texture_data","S8S_v3d_material_data","S8S_v3d_camera_data","S8S_v3d_data","S8S_v3d_node_data","S8S_v3d_animation_data","S8S_v3d_scene_data"],"images":[{"uri":"hiclipart.com.png"}],"materials":[{"alphaMode":"BLEND","doubleSided":false,"extensions":{"S8S_v3d_material_data":{"nodeGraph":{"edges":[{"fromNode":1,"fromOutput":0,"toInput":0,"toNode":0},{"fromNode":1,"fromOutput":1,"toInput":1,"toNode":0},{"fromNode":2,"fromOutput":0,"toInput":1,"toNode":1},{"fromNode":3,"fromOutput":0,"toInput":6,"toNode":1}],"nodes":[{"inputs":[[1,1,1,1]],"is_active_output":true,"name":"MaxOutput","outputs":[],"type":"OUTPUT_MX"},{"IOR":1.5,"inputFactors":[0,1.0,0,0,0,0,1.0,0,0,0,0,0],"inputs":[[0.5880000095741421,0.5880000095741421,0.5880000095741421,1.0],[0.5880000095741421,0.5880000095741421,0.5880000095741421,1.0],[0.9,0.9,0.9,1.0],10.0,0.0,[0.0,0.0,0.0,1.0],100.0,[0,0,0,0],[0,0,0],[0,0,0,0],[0,0,0,0],0],"is_active_output":false,"name":"Material #25","outputs":[[0,0,0,0]],"selfIllumColorOn":false,"type":"MATERIAL_MX"},{"alphaAsMono":false,"alphaAsRGB":false,"alphaSource":"NONE","axis":"XY","clampToEdgeNoExtend":[false,false],"inputs":[0.0,0.0,1.0,1.0,0.0],"is_active_output":false,"mapping":"EXPLICIT_MAP_CHANNEL","name":"Map #1","outputs":[[0,0,0,0]],"texture":0,"type":"BITMAP_MX","uvIndex":0},{"alphaAsMono":true,"alphaAsRGB":false,"alphaSource":"FILE","axis":"XY","clampToEdgeNoExtend":[false,false],"inputs":[0.0,0.0,1.0,1.0,0.0],"is_active_output":false,"mapping":"EXPLICIT_MAP_CHANNEL","name":"Map #2","outputs":[[0,0,0,0]],"texture":1,"type":"BITMAP_MX","uvIndex":0}]},"profile":"max"}},"name":"Material #25"},{"doubleSided":false,"extensions":{"S8S_v3d_material_data":{"nodeGraph":{"edges":[{"fromNode":1,"fromOutput":0,"toInput":0,"toNode":0},{"fromNode":1,"fromOutput":1,"toInput":1,"toNode":0}],"nodes":[{"inputs":[[1,1,1,1]],"is_active_output":true,"name":"MaxOutput","outputs":[],"type":"OUTPUT_MX"},{"IOR":1.5,"inputFactors":[0,0,0,0,0,0,0,0,0,0,0,0],"inputs":[[0.5880000095741421,0.5880000095741421,0.5880000095741421,1.0],[0.34509803921568627,0.5647058823529412,0.8823530608532475,1.0],[0.0035294121386958105,0.0035294121386958105,0.0035294121386958105,1.0],0.3099999725818634,0.2199999988079071,[0.0,0.0,0.0,1.0],100.0,[0,0,0,0],[0,0,0],[0,0,0,0],[0,0,0,0],0],"is_active_output":false,"name":"__DEFAULT__2688403845280","outputs":[[0,0,0,0]],"selfIllumColorOn":false,"type":"MATERIAL_MX"}]},"profile":"max"}},"name":"__DEFAULT__2688403845280"},{"doubleSided":false,"extensions":{"S8S_v3d_material_data":{"nodeGraph":{"edges":[{"fromNode":1,"fromOutput":0,"toInput":0,"toNode":0},{"fromNode":1,"fromOutput":1,"toInput":1,"toNode":0}],"nodes":[{"inputs":[[1,1,1,1]],"is_active_output":true,"name":"MaxOutput","outputs":[],"type":"OUTPUT_MX"},{"IOR":1.5,"inputFactors":[0,0,0,0,0,0,0,0,0,0,0,0],"inputs":[[0.5880000095741421,0.5880000095741421,0.5880000095741421,1.0],[0.6823529411764706,0.7294117647058823,0.796078551049326,1.0],[0.0035294121386958105,0.0035294121386958105,0.0035294121386958105,1.0],0.3099999725818634,0.2199999988079071,[0.0,0.0,0.0,1.0],100.0,[0,0,0,0],[0,0,0],[0,0,0,0],[0,0,0,0],0],"is_active_output":false,"name":"__DEFAULT__2688403848896","outputs":[[0,0,0,0]],"selfIllumColorOn":false,"type":"MATERIAL_MX"}]},"profile":"max"}},"name":"__DEFAULT__2688403848896"},{"doubleSided":false,"extensions":{"S8S_v3d_material_data":{"nodeGraph":{"edges":[{"fromNode":1,"fromOutput":0,"toInput":0,"toNode":0},{"fromNode":1,"fromOutput":1,"toInput":1,"toNode":0}],"nodes":[{"inputs":[[1,1,1,1]],"is_active_output":true,"name":"MaxOutput","outputs":[],"type":"OUTPUT_MX"},{"IOR":1.5,"inputFactors":[0,0,0,0,0,0,0,0,0,0,0,0],"inputs":[[0.5880000095741421,0.5880000095741421,0.5880000095741421,1.0],[0.6823529411764706,0.7294117647058823,0.796078551049326,1.0],[0.0035294121386958105,0.0035294121386958105,0.0035294121386958105,1.0],0.3099999725818634,0.2199999988079071,[0.0,0.0,0.0,1.0],100.0,[0,0,0,0],[0,0,0],[0,0,0,0],[0,0,0,0],0],"is_active_output":false,"name":"__DEFAULT__2688403850704","outputs":[[0,0,0,0]],"selfIllumColorOn":false,"type":"MATERIAL_MX"}]},"profile":"max"}},"name":"__DEFAULT__2688403850704"},{"doubleSided":false,"extensions":{"S8S_v3d_material_data":{"nodeGraph":{"edges":[{"fromNode":1,"fromOutput":0,"toInput":0,"toNode":0},{"fromNode":1,"fromOutput":1,"toInput":1,"toNode":0}],"nodes":[{"inputs":[[1,1,1,1]],"is_active_output":true,"name":"MaxOutput","outputs":[],"type":"OUTPUT_MX"},{"IOR":1.5,"inputFactors":[0,0,0,0,0,0,0,0,0,0,0,0],"inputs":[[0.5880000095741421,0.5880000095741421,0.5880000095741421,1.0],[0.6823529411764706,0.7294117647058823,0.796078551049326,1.0],[0.0035294121386958105,0.0035294121386958105,0.0035294121386958105,1.0],0.3099999725818634,0.2199999988079071,[0.0,0.0,0.0,1.0],100.0,[0,0,0,0],[0,0,0],[0,0,0,0],[0,0,0,0],0],"is_active_output":false,"name":"__DEFAULT__2688403852512","outputs":[[0,0,0,0]],"selfIllumColorOn":false,"type":"MATERIAL_MX"}]},"profile":"max"}},"name":"__DEFAULT__2688403852512"},{"doubleSided":false,"extensions":{"S8S_v3d_material_data":{"nodeGraph":{"edges":[{"fromNode":1,"fromOutput":0,"toInput":0,"toNode":0},{"fromNode":1,"fromOutput":1,"toInput":1,"toNode":0}],"nodes":[{"inputs":[[1,1,1,1]],"is_active_output":true,"name":"MaxOutput","outputs":[],"type":"OUTPUT_MX"},{"IOR":1.5,"inputFactors":[0,0,0,0,0,0,0,0,0,0,0,0],"inputs":[[0.5880000095741421,0.5880000095741421,0.5880000095741421,1.0],[0.6823529411764706,0.7294117647058823,0.796078551049326,1.0],[0.0035294121386958105,0.0035294121386958105,0.0035294121386958105,1.0],0.3099999725818634,0.2199999988079071,[0.0,0.0,0.0,1.0],100.0,[0,0,0,0],[0,0,0],[0,0,0,0],[0,0,0,0],0],"is_active_output":false,"name":"__DEFAULT__2688403854320","outputs":[[0,0,0,0]],"selfIllumColorOn":false,"type":"MATERIAL_MX"}]},"profile":"max"}},"name":"__DEFAULT__2688403854320"},{"doubleSided":false,"extensions":{"S8S_v3d_material_data":{"nodeGraph":{"edges":[{"fromNode":1,"fromOutput":0,"toInput":0,"toNode":0},{"fromNode":1,"fromOutput":1,"toInput":1,"toNode":0}],"nodes":[{"inputs":[[1,1,1,1]],"is_active_output":true,"name":"MaxOutput","outputs":[],"type":"OUTPUT_MX"},{"IOR":1.5,"inputFactors":[0,0,0,0,0,0,0,0,0,0,0,0],"inputs":[[0.5880000095741421,0.5880000095741421,0.5880000095741421,1.0],[0.6823529411764706,0.7294117647058823,0.796078551049326,1.0],[0.0035294121386958105,0.0035294121386958105,0.0035294121386958105,1.0],0.3099999725818634,0.2199999988079071,[0.0,0.0,0.0,1.0],100.0,[0,0,0,0],[0,0,0],[0,0,0,0],[0,0,0,0],0],"is_active_output":false,"name":"__DEFAULT__2688403839856","outputs":[[0,0,0,0]],"selfIllumColorOn":false,"type":"MATERIAL_MX"}]},"profile":"max"}},"name":"__DEFAULT__2688403839856"},{"doubleSided":false,"extensions":{"S8S_v3d_material_data":{"nodeGraph":{"edges":[{"fromNode":1,"fromOutput":0,"toInput":0,"toNode":0},{"fromNode":1,"fromOutput":1,"toInput":1,"toNode":0}],"nodes":[{"inputs":[[1,1,1,1]],"is_active_output":true,"name":"MaxOutput","outputs":[],"type":"OUTPUT_MX"},{"IOR":1.5,"inputFactors":[0,0,0,0,0,0,0,0,0,0,0,0],"inputs":[[0.5880000095741421,0.5880000095741421,0.5880000095741421,1.0],[0.6823529411764706,0.7294117647058823,0.796078551049326,1.0],[0.0035294121386958105,0.0035294121386958105,0.0035294121386958105,1.0],0.3099999725818634,0.2199999988079071,[0.0,0.0,0.0,1.0],100.0,[0,0,0,0],[0,0,0],[0,0,0,0],[0,0,0,0],0],"is_active_output":false,"name":"__DEFAULT__2688403823584","outputs":[[0,0,0,0]],"selfIllumColorOn":false,"type":"MATERIAL_MX"}]},"profile":"max"}},"name":"__DEFAULT__2688403823584"},{"extensions":{"S8S_v3d_material_data":{"nodeGraph":{"edges":[],"nodes":[{"inputs":[[0.0,0.0,0.0,1]],"is_active_output":true,"name":"World Output","outputs":[],"type":"OUTPUT_MX"}]},"profile":"max"}},"name":"Verge3D_Environment"}],"meshes":[{"name":"Teapot001","primitives":[{"attributes":{"JOINTS_0":3,"NORMAL":2,"POSITION":1,"TEXCOORD_0":5,"WEIGHTS_0":4},"indices":0,"material":0,"mode":4}]}],"nodes":[{"extensions":{"S8S_v3d_node_data":{"frustumCulling":true,"hidden":false,"renderOrder":0,"useCastShadows":true,"useShadows":true}},"mesh":0,"name":"Teapot001","skin":0,"translation":[5.203256932873046e-06,0.0,-1.1351070404052734]},{"children":[2],"extensions":{"S8S_v3d_node_data":{"hidden":false}},"name":"Circle001"},{"children":[3,5],"extensions":{"S8S_v3d_node_data":{"hidden":false}},"name":"Bone001","rotation":[-0.5013203620910645,-0.4986822307109833,0.498676061630249,0.5013143420219421],"translation":[-166.1090850830078,-3.814697265625e-06,-2.2736223854735726e-06]},{"children":[4],"extensions":{"S8S_v3d_node_data":{"hidden":false}},"name":"Bone002","rotation":[-2.622694410092663e-06,0.0026381986681371927,-3.0781023951931274e-08,0.999996542930603],"scale":[0.9999998807907104,1.0,0.9999998807907104],"translation":[51.78689956665039,-2.427026629447937e-06,-1.52587890625e-05]},{"extensions":{"S8S_v3d_node_data":{"hidden":false}},"name":"Bone003","rotation":[4.548028620376954e-13,-4.20226204211233e-27,7.105427357601002e-15,1.0],"translation":[44.5443115234375,-2.3283064365386963e-10,1.52587890625e-05]},{"children":[6],"extensions":{"S8S_v3d_node_data":{"hidden":false}},"name":"Bone004","rotation":[-2.4426083200523863e-06,-0.5075203776359558,1.3282957525007077e-06,0.8616397976875305],"scale":[0.9999999403953552,1.0,0.9999999403953552],"translation":[51.78689956665039,1.5783589333295822e-06,-0.0]},{"children":[7],"extensions":{"S8S_v3d_node_data":{"hidden":false}},"name":"Bone005","rotation":[1.0225485880255292e-07,-0.14954489469528198,1.54649004713292e-08,0.98875492811203],"scale":[1.000000238418579,1.0,1.000000238418579],"translation":[27.884063720703125,-3.2831449061632156e-06,-3.814697265625e-06]},{"extensions":{"S8S_v3d_node_data":{"hidden":false}},"name":"Bone006","rotation":[-1.0835776720341528e-13,1.1236536274712048e-26,4.432010314303625e-13,1.0],"scale":[0.9999999403953552,1.0,0.9999999403953552],"translation":[31.865036010742188,3.6065466701984406e-07,-7.62939453125e-06]},{"camera":0,"children":[9],"name":"__DEFAULT_CAMERA__","rotation":[0.9273369908332825,-0.2702939808368683,-0.07242503017187119,-0.2484792023897171],"scale":[0.9999999403953552,0.9999999403953552,1.0000001192092896],"translation":[-457.96240234375,528.8309936523438,872.4517211914062]},{"extensions":{"S8S_v3d_node_data":{"light":0}},"name":"__DEFAULT_LIGHT__","rotation":[3.774895063202166e-08,-0.0,-0.0,1.0],"scale":[1.0,1.0,1.0],"translation":[978.42578125,1467.6385498046875,1956.8516845703125]}],"samplers":[{}],"scene":0,"scenes":[{"extensions":{"S8S_v3d_scene_data":{"aaMethod":"AUTO","iblEnvironmentMode":"PMREM","light":1,"pmremMaxTileSize":256,"postprocessing":[],"shadowMap":{"renderReverseSided":false,"renderSingleSided":true,"type":"PCFPOISSON"},"toneMapping":{"aperture":8,"highlights":0.25,"iso":100000.0,"midTones":1.0,"physicalScale":1500.0,"physicalScaleMode":true,"processBG":true,"saturation":1.0,"shadows":0.20000000298023224,"shutter":0.001,"type":"physicalMax","vignetting":0,"whiteBalance":[1.0,0.9999999401616115,1.000000119676777]},"worldMaterial":8}},"extras":{"animFrameRate":30,"coordSystem":"Z_UP_RIGHT"},"name":"Scene","nodes":[0,1,8]}],"skins":[{"inverseBindMatrices":6,"joints":[3,6]}],"textures":[{"extensions":{"S8S_v3d_texture_data":{"anisotropy":1,"colorSpace":"srgb","isCubeTexture":false}},"name":"Map #1","sampler":0,"source":0},{"extensions":{"S8S_v3d_texture_data":{"anisotropy":1,"colorSpace":"srgb","isCubeTexture":false}},"name":"Map #2","sampler":0,"source":0}]}
