{"accessors":[{"bufferView":0,"componentType":5123,"count":1860,"max":[637],"min":[0],"type":"SCALAR"},{"bufferView":1,"componentType":5126,"count":638,"max":[53.084774017333984,0.30000001192092896,43.673797607421875],"min":[0.5172851085662842,-0.30000001192092896,-43.806419372558594],"type":"VEC3"},{"bufferView":2,"componentType":5126,"count":638,"max":[0.9997496604919434,1.0,0.9999839663505554],"min":[-0.9997794032096863,-1.0,-0.998952329158783],"type":"VEC3"},{"bufferView":3,"componentType":5126,"count":638,"max":[0.9133879542350769,0.9852644801139832],"min":[0.5239991545677185,0.013261914253234863],"type":"VEC2"},{"bufferView":4,"componentType":5123,"count":1860,"max":[637],"min":[0],"type":"SCALAR"},{"bufferView":5,"componentType":5126,"count":638,"max":[53.08477783203125,0.30000001192092896,43.67380142211914],"min":[0.5172853469848633,-0.30000001192092896,-43.80642318725586],"type":"VEC3"},{"bufferView":6,"componentType":5126,"count":638,"max":[0.9997496604919434,1.0,0.9999839663505554],"min":[-0.9997794032096863,-1.0,-0.998952329158783],"type":"VEC3"},{"bufferView":7,"componentType":5126,"count":638,"max":[0.9133879542350769,0.9852644801139832],"min":[0.5239991545677185,0.013261914253234863],"type":"VEC2"},{"bufferView":8,"componentType":5121,"count":378,"max":[91],"min":[0],"type":"SCALAR"},{"bufferView":9,"componentType":5126,"count":92,"max":[2.6433494091033936,27.90860939025879,2.6031906604766846],"min":[-2.483935832977295,-3.5135982036590576,-2.603191614151001],"type":"VEC3"},{"bufferView":10,"componentType":5126,"count":92,"max":[0.9993751645088196,1.0,0.984192430973053],"min":[-0.9391055107116699,-1.0,-0.984192430973053],"type":"VEC3"},{"bufferView":11,"componentType":5126,"count":92,"max":[0.9722222089767456,1.0],"min":[-0.027777791023254395,0.0],"type":"VEC2"},{"bufferView":12,"componentType":5126,"count":692,"max":[25.0],"min":[0.0],"type":"SCALAR"},{"bufferView":13,"componentType":5126,"count":692,"max":[169.92532348632812,176.42784118652344,252.702392578125],"min":[-309.3198547363281,-185.92901611328125,-271.2413330078125],"type":"VEC3"},{"bufferView":14,"componentType":5126,"count":602,"max":[25.0],"min":[0.0],"type":"SCALAR"},{"bufferView":15,"componentType":5126,"count":602,"max":[0.5118910074234009,0.9629870653152466,0.5035191774368286,0.9893425107002258],"min":[-0.1447228491306305,-0.8544216752052307,-0.12039540708065033,-0.4971306622028351],"type":"VEC4"},{"bufferView":16,"componentType":5126,"count":18,"max":[25.0],"min":[0.0],"type":"SCALAR"},{"bufferView":17,"componentType":5126,"count":18,"max":[24.801910400390625,3.0517578125e-05,6.103515625e-05],"min":[24.80181884765625,-3.0517578125e-05,-6.103515625e-05],"type":"VEC3"},{"bufferView":18,"componentType":5126,"count":751,"max":[25.0],"min":[0.0],"type":"SCALAR"},{"bufferView":19,"componentType":5126,"count":751,"max":[-1.2903940671549208e-07,-0.520463764667511,0.4785103499889374,0.7082850933074951],"min":[-0.47691720724105835,-0.7059265971183777,-2.133329957132446e-07,0.5222024321556091],"type":"VEC4"},{"bufferView":20,"componentType":5126,"count":24,"max":[25.0],"min":[0.0],"type":"SCALAR"},{"bufferView":21,"componentType":5126,"count":24,"max":[24.801910400390625,3.0517578125e-05,6.103515625e-05],"min":[24.80181884765625,-3.0517578125e-05,-6.103515625e-05],"type":"VEC3"},{"bufferView":22,"componentType":5126,"count":751,"max":[25.0],"min":[0.0],"type":"SCALAR"},{"bufferView":23,"componentType":5126,"count":751,"max":[0.484099805355072,0.7165582180023193,0.4712425470352173,0.697527289390564],"min":[9.085319163659733e-08,0.5283021926879883,-1.2084221623354097e-07,0.5142710208892822],"type":"VEC4"}],"animations":[{"channels":[{"sampler":0,"target":{"node":0,"path":"translation"}},{"sampler":1,"target":{"node":0,"path":"rotation"}}],"extensions":{"S8S_v3d_animation_data":{"auto":true,"loop":"REPEAT","offset":0.0,"repeatCount":1.0,"repeatInfinite":true}},"name":"Bone001","samplers":[{"input":12,"interpolation":"LINEAR","output":13},{"input":14,"interpolation":"LINEAR","output":15}]},{"channels":[{"sampler":0,"target":{"node":2,"path":"translation"}},{"sampler":1,"target":{"node":2,"path":"rotation"}}],"extensions":{"S8S_v3d_animation_data":{"auto":true,"loop":"REPEAT","offset":0.0,"repeatCount":1.0,"repeatInfinite":true}},"name":"Bone003","samplers":[{"input":16,"interpolation":"LINEAR","output":17},{"input":18,"interpolation":"LINEAR","output":19}]},{"channels":[{"sampler":0,"target":{"node":5,"path":"translation"}},{"sampler":1,"target":{"node":5,"path":"rotation"}}],"extensions":{"S8S_v3d_animation_data":{"auto":true,"loop":"REPEAT","offset":0.0,"repeatCount":1.0,"repeatInfinite":true}},"name":"Bone005","samplers":[{"input":20,"interpolation":"LINEAR","output":21},{"input":22,"interpolation":"LINEAR","output":23}]}],"asset":{"generator":"Soft8Soft Verge3D for 3ds Max plug-in","version":"2.0"},"bufferViews":[{"buffer":0,"byteLength":3720,"byteOffset":0,"target":34963},{"buffer":0,"byteLength":7656,"byteOffset":3720,"target":34962},{"buffer":0,"byteLength":7656,"byteOffset":11376,"target":34962},{"buffer":0,"byteLength":5104,"byteOffset":19032,"target":34962},{"buffer":0,"byteLength":3720,"byteOffset":24136,"target":34963},{"buffer":0,"byteLength":7656,"byteOffset":27856,"target":34962},{"buffer":0,"byteLength":7656,"byteOffset":35512,"target":34962},{"buffer":0,"byteLength":5104,"byteOffset":43168,"target":34962},{"buffer":0,"byteLength":378,"byteOffset":48272,"target":34963},{"buffer":0,"byteLength":1104,"byteOffset":48652,"target":34962},{"buffer":0,"byteLength":1104,"byteOffset":49756,"target":34962},{"buffer":0,"byteLength":736,"byteOffset":50860,"target":34962},{"buffer":0,"byteLength":2768,"byteOffset":51596},{"buffer":0,"byteLength":8304,"byteOffset":54364},{"buffer":0,"byteLength":2408,"byteOffset":62668},{"buffer":0,"byteLength":9632,"byteOffset":65076},{"buffer":0,"byteLength":72,"byteOffset":74708},{"buffer":0,"byteLength":216,"byteOffset":74780},{"buffer":0,"byteLength":3004,"byteOffset":74996},{"buffer":0,"byteLength":12016,"byteOffset":78000},{"buffer":0,"byteLength":96,"byteOffset":90016},{"buffer":0,"byteLength":288,"byteOffset":90112},{"buffer":0,"byteLength":3004,"byteOffset":90400},{"buffer":0,"byteLength":12016,"byteOffset":93404}],"buffers":[{"byteLength":105420,"uri":"200528_01.bin"}],"cameras":[{"extensions":{"S8S_v3d_camera_data":{"controls":"ORBIT","enablePan":true,"moveSpeed":1,"orbitMaxDistance":10000,"orbitMaxPolarAngle":3.141592653589793,"orbitMinDistance":0,"orbitMinPolarAngle":0,"orbitTarget":[0,0,0],"rotateSpeed":1,"viewportFitInitialAspect":1.3333333333333333,"viewportFitType":"VERTICAL"}},"name":"__DEFAULT__","perspective":{"aspectRatio":1.3333333333333333,"yfov":0.6024156981946759,"zfar":1000,"znear":0.01},"type":"perspective"}],"extensions":{"S8S_v3d_data":{"lights":[{"color":[1,1,1],"intensity":1,"name":"__DEFAULT__","profile":"max","type":"point"},{"color":[0.0,0.0,0.0],"intensity":1,"name":"__AMBIENT__","profile":"max","type":"ambient"}]}},"extensionsUsed":["S8S_v3d_texture_data","S8S_v3d_material_data","S8S_v3d_camera_data","S8S_v3d_data","S8S_v3d_node_data","S8S_v3d_animation_data","S8S_v3d_scene_data"],"images":[{"uri":"1745_01.jpg"}],"materials":[{"doubleSided":false,"extensions":{"S8S_v3d_material_data":{"nodeGraph":{"edges":[{"fromNode":1,"fromOutput":0,"toInput":0,"toNode":0},{"fromNode":1,"fromOutput":1,"toInput":1,"toNode":0}],"nodes":[{"inputs":[[1,1,1,1]],"is_active_output":true,"name":"MaxOutput","outputs":[],"type":"OUTPUT_MX"},{"IOR":1.5,"inputFactors":[0,0,0,0,0,0,0,0,0,0,0,0],"inputs":[[0.5880000095741421,0.5880000095741421,0.5880000095741421,1.0],[0.6823529411764706,0.7294117647058823,0.796078551049326,1.0],[0.0035294121386958105,0.0035294121386958105,0.0035294121386958105,1.0],0.3099999725818634,0.2199999988079071,[0.0,0.0,0.0,1.0],100.0,[0,0,0,0],[0,0,0],[0,0,0,0],[0,0,0,0],0],"is_active_output":false,"name":"__DEFAULT__2662315341968","outputs":[[0,0,0,0]],"selfIllumColorOn":false,"type":"MATERIAL_MX"}]},"profile":"max"}},"name":"__DEFAULT__2662315341968"},{"doubleSided":false,"extensions":{"S8S_v3d_material_data":{"nodeGraph":{"edges":[{"fromNode":1,"fromOutput":0,"toInput":0,"toNode":0},{"fromNode":1,"fromOutput":1,"toInput":1,"toNode":0}],"nodes":[{"inputs":[[1,1,1,1]],"is_active_output":true,"name":"MaxOutput","outputs":[],"type":"OUTPUT_MX"},{"IOR":1.5,"inputFactors":[0,0,0,0,0,0,0,0,0,0,0,0],"inputs":[[0.5880000095741421,0.5880000095741421,0.5880000095741421,1.0],[0.6823529411764706,0.7294117647058823,0.796078551049326,1.0],[0.0035294121386958105,0.0035294121386958105,0.0035294121386958105,1.0],0.3099999725818634,0.2199999988079071,[0.0,0.0,0.0,1.0],100.0,[0,0,0,0],[0,0,0],[0,0,0,0],[0,0,0,0],0],"is_active_output":false,"name":"__DEFAULT__2662315329312","outputs":[[0,0,0,0]],"selfIllumColorOn":false,"type":"MATERIAL_MX"}]},"profile":"max"}},"name":"__DEFAULT__2662315329312"},{"doubleSided":false,"extensions":{"S8S_v3d_material_data":{"nodeGraph":{"edges":[{"fromNode":1,"fromOutput":0,"toInput":0,"toNode":0},{"fromNode":1,"fromOutput":1,"toInput":1,"toNode":0}],"nodes":[{"inputs":[[1,1,1,1]],"is_active_output":true,"name":"MaxOutput","outputs":[],"type":"OUTPUT_MX"},{"IOR":1.5,"inputFactors":[0,0,0,0,0,0,0,0,0,0,0,0],"inputs":[[0.5880000095741421,0.5880000095741421,0.5880000095741421,1.0],[0.6823529411764706,0.7294117647058823,0.796078551049326,1.0],[0.0035294121386958105,0.0035294121386958105,0.0035294121386958105,1.0],0.3099999725818634,0.2199999988079071,[0.0,0.0,0.0,1.0],100.0,[0,0,0,0],[0,0,0],[0,0,0,0],[0,0,0,0],0],"is_active_output":false,"name":"__DEFAULT__2662315331120","outputs":[[0,0,0,0]],"selfIllumColorOn":false,"type":"MATERIAL_MX"}]},"profile":"max"}},"name":"__DEFAULT__2662315331120"},{"doubleSided":false,"extensions":{"S8S_v3d_material_data":{"nodeGraph":{"edges":[{"fromNode":1,"fromOutput":0,"toInput":0,"toNode":0},{"fromNode":1,"fromOutput":1,"toInput":1,"toNode":0}],"nodes":[{"inputs":[[1,1,1,1]],"is_active_output":true,"name":"MaxOutput","outputs":[],"type":"OUTPUT_MX"},{"IOR":1.5,"inputFactors":[0,0,0,0,0,0,0,0,0,0,0,0],"inputs":[[0.5880000095741421,0.5880000095741421,0.5880000095741421,1.0],[0.6823529411764706,0.7294117647058823,0.796078551049326,1.0],[0.0035294121386958105,0.0035294121386958105,0.0035294121386958105,1.0],0.3099999725818634,0.2199999988079071,[0.0,0.0,0.0,1.0],100.0,[0,0,0,0],[0,0,0],[0,0,0,0],[0,0,0,0],0],"is_active_output":false,"name":"__DEFAULT__2662315320272","outputs":[[0,0,0,0]],"selfIllumColorOn":false,"type":"MATERIAL_MX"}]},"profile":"max"}},"name":"__DEFAULT__2662315320272"},{"doubleSided":false,"extensions":{"S8S_v3d_material_data":{"nodeGraph":{"edges":[{"fromNode":1,"fromOutput":0,"toInput":0,"toNode":0},{"fromNode":1,"fromOutput":1,"toInput":1,"toNode":0},{"fromNode":2,"fromOutput":0,"toInput":1,"toNode":1}],"nodes":[{"inputs":[[1,1,1,1]],"is_active_output":true,"name":"MaxOutput","outputs":[],"type":"OUTPUT_MX"},{"IOR":1.5,"inputFactors":[0,1.0,0,0,0,0,0,0,0,0,0,0],"inputs":[[0.5880000095741421,0.5880000095741421,0.5880000095741421,1.0],[0.5880000095741421,0.5880000095741421,0.5880000095741421,1.0],[0.9,0.9,0.9,1.0],10.0,0.0,[0.0,0.0,0.0,1.0],100.0,[0,0,0,0],[0,0,0],[0,0,0,0],[0,0,0,0],0],"is_active_output":false,"name":"Material #25","outputs":[[0,0,0,0]],"selfIllumColorOn":false,"type":"MATERIAL_MX"},{"alphaAsMono":false,"alphaAsRGB":false,"alphaSource":"NONE","axis":"XY","clampToEdgeNoExtend":[false,false],"inputs":[0.0,0.0,1.0,1.0,0.0],"is_active_output":false,"mapping":"EXPLICIT_MAP_CHANNEL","name":"Map #1","outputs":[[0,0,0,0]],"texture":0,"type":"BITMAP_MX","uvIndex":0}]},"profile":"max"}},"name":"Material #25"},{"doubleSided":false,"extensions":{"S8S_v3d_material_data":{"nodeGraph":{"edges":[{"fromNode":1,"fromOutput":0,"toInput":0,"toNode":0},{"fromNode":1,"fromOutput":1,"toInput":1,"toNode":0}],"nodes":[{"inputs":[[1,1,1,1]],"is_active_output":true,"name":"MaxOutput","outputs":[],"type":"OUTPUT_MX"},{"IOR":1.5,"inputFactors":[0,0,0,0,0,0,0,0,0,0,0,0],"inputs":[[0.5880000095741421,0.5880000095741421,0.5880000095741421,1.0],[0.6823529411764706,0.7294117647058823,0.796078551049326,1.0],[0.0035294121386958105,0.0035294121386958105,0.0035294121386958105,1.0],0.3099999725818634,0.2199999988079071,[0.0,0.0,0.0,1.0],100.0,[0,0,0,0],[0,0,0],[0,0,0,0],[0,0,0,0],0],"is_active_output":false,"name":"__DEFAULT__2662315336544","outputs":[[0,0,0,0]],"selfIllumColorOn":false,"type":"MATERIAL_MX"}]},"profile":"max"}},"name":"__DEFAULT__2662315336544"},{"doubleSided":false,"extensions":{"S8S_v3d_material_data":{"nodeGraph":{"edges":[{"fromNode":1,"fromOutput":0,"toInput":0,"toNode":0},{"fromNode":1,"fromOutput":1,"toInput":1,"toNode":0}],"nodes":[{"inputs":[[1,1,1,1]],"is_active_output":true,"name":"MaxOutput","outputs":[],"type":"OUTPUT_MX"},{"IOR":1.5,"inputFactors":[0,0,0,0,0,0,0,0,0,0,0,0],"inputs":[[0.5880000095741421,0.5880000095741421,0.5880000095741421,1.0],[0.6823529411764706,0.7294117647058823,0.796078551049326,1.0],[0.0035294121386958105,0.0035294121386958105,0.0035294121386958105,1.0],0.3099999725818634,0.2199999988079071,[0.0,0.0,0.0,1.0],100.0,[0,0,0,0],[0,0,0],[0,0,0,0],[0,0,0,0],0],"is_active_output":false,"name":"__DEFAULT__2662315343776","outputs":[[0,0,0,0]],"selfIllumColorOn":false,"type":"MATERIAL_MX"}]},"profile":"max"}},"name":"__DEFAULT__2662315343776"},{"doubleSided":false,"extensions":{"S8S_v3d_material_data":{"nodeGraph":{"edges":[{"fromNode":1,"fromOutput":0,"toInput":0,"toNode":0},{"fromNode":1,"fromOutput":1,"toInput":1,"toNode":0}],"nodes":[{"inputs":[[1,1,1,1]],"is_active_output":true,"name":"MaxOutput","outputs":[],"type":"OUTPUT_MX"},{"IOR":1.5,"inputFactors":[0,0,0,0,0,0,0,0,0,0,0,0],"inputs":[[0.0196078431372549,0.0196078431372549,0.0196078431372549,1.0],[0.0196078431372549,0.0196078431372549,0.0196078431372549,1.0],[0.9,0.9,0.9,1.0],10.0,0.0,[0.0,0.0,0.0,1.0],100.0,[0,0,0,0],[0,0,0],[0,0,0,0],[0,0,0,0],0],"is_active_output":false,"name":"Material #48","outputs":[[0,0,0,0]],"selfIllumColorOn":false,"type":"MATERIAL_MX"}]},"profile":"max"}},"name":"Material #48"},{"extensions":{"S8S_v3d_material_data":{"nodeGraph":{"edges":[],"nodes":[{"inputs":[[0.0,0.0,0.0,1]],"is_active_output":true,"name":"World Output","outputs":[],"type":"OUTPUT_MX"}]},"profile":"max"}},"name":"Verge3D_Environment"}],"meshes":[{"name":"Plane001","primitives":[{"attributes":{"NORMAL":2,"POSITION":1,"TEXCOORD_0":3},"indices":0,"material":4,"mode":4}]},{"name":"Plane002","primitives":[{"attributes":{"NORMAL":6,"POSITION":5,"TEXCOORD_0":7},"indices":4,"material":4,"mode":4}]},{"name":"Cylinder001","primitives":[{"attributes":{"NORMAL":10,"POSITION":9,"TEXCOORD_0":11},"indices":8,"material":7,"mode":4}]}],"nodes":[{"children":[1],"extensions":{"S8S_v3d_node_data":{"hidden":false}},"name":"Bone001","rotation":[0.5002291798591614,0.4998263120651245,0.49977079033851624,0.5001736283302307],"translation":[0.0,-185.0,-271.2413330078125]},{"children":[2,5,8],"extensions":{"S8S_v3d_node_data":{"hidden":false}},"name":"Bone002","rotation":[-5.5556891311425716e-05,-0.007087735924869776,5.59915804387856e-07,0.9999749064445496],"translation":[163.09100341796875,-3.0517578125e-05,-1.537799835205078e-05]},{"children":[3,4],"extensions":{"S8S_v3d_node_data":{"hidden":false}},"name":"Bone003","rotation":[-1.377348581854676e-07,-0.7059265375137329,-1.995434644186389e-07,0.7082850933074951],"translation":[24.801881790161133,0.0,1.043081283569336e-06]},{"extensions":{"S8S_v3d_node_data":{"hidden":false}},"name":"Bone004","rotation":[7.105423969469213e-15,-4.901884536544412e-25,3.4447724620717546e-12,1.0],"scale":[0.9999998807907104,1.0,0.9999998807907104],"translation":[65.63443756103516,0.0,1.5020370483398438e-05]},{"extensions":{"S8S_v3d_node_data":{"frustumCulling":true,"hidden":false,"renderOrder":0,"useCastShadows":true,"useShadows":true}},"mesh":0,"name":"Plane001","rotation":[1.4941244330657355e-07,0.005822864361107349,-8.700232756453374e-10,0.9999830722808838],"scale":[0.9999999403953552,1.0,0.9999999403953552],"translation":[-0.31369587779045105,0.0,1.964824914932251]},{"children":[6,7],"extensions":{"S8S_v3d_node_data":{"hidden":false}},"name":"Bone005","rotation":[1.0290003160662309e-07,0.7165582180023193,-1.0570748543159425e-07,0.697527289390564],"translation":[24.80186653137207,0.0,2.086162567138672e-07]},{"extensions":{"S8S_v3d_node_data":{"hidden":false}},"name":"Bone006","rotation":[-1.1546317762035734e-14,-5.474099338769413e-26,2.8708695577056575e-12,1.0],"scale":[1.000000238418579,1.0,1.000000238418579],"translation":[64.05360412597656,0.0,-9.298324584960938e-06]},{"extensions":{"S8S_v3d_node_data":{"frustumCulling":true,"hidden":false,"renderOrder":0,"useCastShadows":true,"useShadows":true}},"mesh":1,"name":"Plane002","rotation":[0.9999821782112122,2.3938633830766776e-07,0.005966628435999155,-1.6149523673902877e-07],"scale":[1.000000238418579,1.0,1.000000238418579],"translation":[0.359932005405426,0.0,-1.9568676948547363]},{"children":[9,10],"extensions":{"S8S_v3d_node_data":{"frustumCulling":true,"hidden":false,"renderOrder":0,"useCastShadows":true,"useShadows":true}},"mesh":2,"name":"Cylinder001","rotation":[-0.5037312507629395,-0.49624067544937134,-0.4962408244609833,0.5037311911582947],"scale":[0.9999999403953552,0.9999999403953552,1.0],"translation":[6.404315948486328,0.0,-0.06095302104949951]},{"extensions":{"S8S_v3d_node_data":{"hidden":false}},"name":"Line001","rotation":[0.6408564448356628,-0.29883623123168945,0.29883629083633423,0.6408563256263733],"scale":[1.0000001192092896,0.9999999403953552,0.9999998807907104],"translation":[0.0,16.43354606628418,-0.0]},{"extensions":{"S8S_v3d_node_data":{"hidden":false}},"name":"Line002","rotation":[-0.29883629083633423,0.6408563256263733,-0.6408564448356628,-0.29883623123168945],"scale":[0.9999999403953552,1.0000001192092896,0.9999998807907104],"translation":[0.0,16.43354606628418,-0.0]},{"camera":0,"children":[12],"name":"__DEFAULT_CAMERA__","rotation":[-0.5417540669441223,0.5610015392303467,0.4502520263195038,0.43480217456817627],"scale":[1.0000001192092896,1.0000001192092896,1.0],"translation":[-352.8791198730469,1477.18505859375,118.57302856445312]},{"extensions":{"S8S_v3d_node_data":{"light":0}},"name":"__DEFAULT_LIGHT__","rotation":[3.774895063202166e-08,-0.0,-0.0,1.0],"scale":[1.0,1.0,1.0],"translation":[574.338623046875,861.5078735351562,1148.67724609375]}],"samplers":[{}],"scene":0,"scenes":[{"extensions":{"S8S_v3d_scene_data":{"aaMethod":"AUTO","iblEnvironmentMode":"PMREM","light":1,"pmremMaxTileSize":256,"postprocessing":[],"shadowMap":{"renderReverseSided":false,"renderSingleSided":true,"type":"PCFPOISSON"},"worldMaterial":8}},"extras":{"animFrameRate":30,"coordSystem":"Z_UP_RIGHT"},"name":"Scene","nodes":[0,11]}],"textures":[{"extensions":{"S8S_v3d_texture_data":{"colorSpace":"srgb","isCubeTexture":false}},"name":"Map #1","sampler":0,"source":0}]}
